<svg width="435" height="311" viewBox="0 0 435 311" fill="none" xmlns="http://www.w3.org/2000/svg">
<rect width="435" height="311" fill="white"/>
<g clip-path="url(#clip0_503_10)">
<path d="M322.276 211.712L265.848 138.756L225.076 56.2444C224.45 55.0083 223.454 53.9626 222.207 53.2301C220.959 52.4975 219.511 52.1084 218.032 52.1084C216.554 52.1084 215.106 52.4975 213.858 53.2301C212.61 53.9626 211.615 55.0083 210.989 56.2444L170.489 138.302L113.763 211.689C112.949 212.762 112.469 214.02 112.375 215.327C112.281 216.634 112.576 217.94 113.229 219.104C113.882 220.267 114.867 221.243 116.079 221.926C117.29 222.609 118.681 222.973 120.1 222.979H120.839L217.896 214.356L315.226 223.015H315.965C317.382 223.005 318.769 222.637 319.977 221.953C321.184 221.268 322.166 220.291 322.816 219.129C323.466 217.966 323.759 216.662 323.664 215.357C323.569 214.052 323.089 212.796 322.276 211.724V211.712ZM218.052 75.2249L246.784 133.398H189.307L218.052 75.2249ZM248.767 147.212L218 196.392L187.246 147.212H248.767ZM135.095 207.825L175.349 155.764L204.081 201.69L135.095 207.825ZM231.919 201.714L260.651 155.787L300.905 207.849L231.919 201.714Z" fill="#FC0FC0"/>
</g>
<defs>
<clipPath id="clip0_503_10">
<rect width="211.352" height="170.932" fill="white" transform="translate(112.324 52.0703)"/>
</clipPath>
</defs>
</svg>
