<svg width="435" height="311" viewBox="0 0 435 311" fill="none" xmlns="http://www.w3.org/2000/svg">
<g clip-path="url(#clip0_503_10)">
<rect width="435" height="311" fill="white"/>
<g clip-path="url(#clip1_503_10)">
<path d="M362.006 248.639L283.808 149.819L227.306 38.0554C226.437 36.3811 225.058 34.9647 223.329 33.9724C221.6 32.9802 219.594 32.4531 217.544 32.4531C215.495 32.4531 213.488 32.9802 211.76 33.9724C210.031 34.9647 208.651 36.3811 207.783 38.0554L151.658 149.204L73.0472 248.607C71.9193 250.061 71.2541 251.765 71.1238 253.536C70.9934 255.306 71.4029 257.075 72.3077 258.651C73.2125 260.226 74.5782 261.548 76.2567 262.473C77.9352 263.399 79.8625 263.892 81.8296 263.9H82.8533L217.356 252.219L352.235 263.948H353.259C355.223 263.935 357.146 263.437 358.819 262.51C360.493 261.582 361.853 260.259 362.754 258.685C363.654 257.11 364.06 255.344 363.929 253.576C363.797 251.809 363.132 250.107 362.006 248.655V248.639ZM217.571 63.7648L257.389 142.562H177.736L217.571 63.7648ZM260.136 161.273L217.499 227.887L174.88 161.273H260.136ZM102.609 243.374L158.393 172.856L198.21 235.064L102.609 243.374ZM236.788 235.096L276.606 172.888L332.39 243.407L236.788 235.096Z" fill="#FC0FC0"/>
</g>
</g>
<defs>
<clipPath id="clip0_503_10">
<rect width="435" height="311" fill="white"/>
</clipPath>
<clipPath id="clip1_503_10">
<rect width="292.892" height="231.53" fill="white" transform="translate(71.0542 32.4023)"/>
</clipPath>
</defs>
</svg>
