<svg width="435" height="311" viewBox="0 0 435 311" fill="none" xmlns="http://www.w3.org/2000/svg">
<g clip-path="url(#clip0_503_10)">
<rect width="435" height="311" fill="white"/>
<g clip-path="url(#clip1_503_10)">
<path d="M340.942 228.736L274.413 144.068L226.342 48.3097C225.604 46.8752 224.43 45.6617 222.959 44.8115C221.489 43.9613 219.781 43.5098 218.038 43.5098C216.294 43.5098 214.587 43.9613 213.116 44.8115C211.645 45.6617 210.472 46.8752 209.733 48.3097L161.983 143.54L95.1026 228.708C94.143 229.954 93.5771 231.414 93.4662 232.931C93.3553 234.448 93.7036 235.964 94.4734 237.313C95.2432 238.663 96.4051 239.796 97.8331 240.589C99.2612 241.382 100.901 241.804 102.574 241.811H103.445L217.877 231.803L332.63 241.852H333.501C335.172 241.841 336.808 241.415 338.232 240.62C339.655 239.825 340.813 238.692 341.579 237.343C342.345 235.994 342.691 234.48 342.578 232.966C342.466 231.451 341.901 229.993 340.942 228.75V228.736ZM218.061 70.3373L251.936 137.85H184.17L218.061 70.3373ZM254.274 153.881L218 210.956L181.74 153.881H254.274ZM120.253 224.225L167.713 163.805L201.589 217.104L120.253 224.225ZM234.41 217.132L268.286 163.833L315.746 224.253L234.41 217.132Z" fill="#FC0FC0"/>
</g>
</g>
<defs>
<clipPath id="clip0_503_10">
<rect width="435" height="311" fill="white"/>
</clipPath>
<clipPath id="clip1_503_10">
<rect width="249.186" height="198.373" fill="white" transform="translate(93.407 43.4658)"/>
</clipPath>
</defs>
</svg>
